{"title":"Children of the Corn, Genesis 2011 DVDrip English Klam","uid":6656135,"size":1394590534,"categoryP":"video","categoryS":"movies","magnet":"?xt=urn:btih:b99826947d055eb162cfe31f69d24ea80bd07dcd&amp;dn=Children+of+the+Corn%2C+Genesis+2011+DVDrip+English+Klam&amp;tr=udp%3A%2F%2Ftracker.openbittorrent.com%3A80&amp;tr=udp%3A%2F%2Fopen.demonii.com%3A1337&amp;tr=udp%3A%2F%2Ftracker.coppersurfer.tk%3A6969&amp;tr=udp%3A%2F%2Fexodus.desync.com%3A6969","seeders":0,"leechers":0,"uploader":"Klambake","files":-1,"time":1315324650,"description":"With: Kelen Coleman, Tim Rock and Billy Drago\n\nTim en Allie zoeken onderdak bij een afgelegen gebouw in de woestijn, nadat ze gestrand en verdwaald zijn. Een vreemde priester laat ze binnen, op voorwaarde dat ze de volgende ochtend weer weggaan en dat ze niet overal rondneuzen. Wanneer er buiten geschreeuw en gehuil te horen is, sluipt Allie naar buiten om op onderzoek uit te gaan. Ze doet de vreselijke ontdekking dat zij en Tim te maken hebben met een bizarre sekte. De sekte aanbiedt een entiteit die mogelijk verblijft in het lichaam van een klein jongetje.\n\nA young couple tries to free an imprisoned child with catastrophic results. \n\n------------------ Dutch Friends ------------------\nYou can find my Friends at: http://www.Film-Test.nl \n------ They got my dutchs subs ---- and more ------\n\nGeneral:\n\nComplete name                    : Children of the Corn\\Genesis.avi\nFormat                           : AVI\nFormat/Info                      : Audio Video Interleave\nFile size                        : 1.30 GiB\nDuration                         : 1h 20mn\nOverall bit rate                 : 2 307 Kbps\n\nVideo:\n\nFormat                           : MPEG-4 Visual\nFormat profile                   : Simple@L3\nFormat settings, BVOP            : No\nFormat settings, QPel            : No\nFormat settings, GMC             : No warppoints\nFormat settings, Matrix          : Default (H.263)\nCodec ID                         : XVID\nCodec ID/Hint                    : XviD\nDuration                         : 1h 20mn\nBit rate                         : 1 848 Kbps\nWidth                            : 720 pixels\nHeight                           : 304 pixels\nDisplay aspect ratio             : 2.35:1\nFrame rate                       : 23.976 fps\nColor space                      : YUV\nChroma subsampling               : 4:2:0\nBit depth                        : 8 bits\nScan type                        : Progressive\nBits/(Pixel*Frame)               : 0.352\nStream size                      : 1.04 GiB (80%)\nWriting library                  : XviD 1.1.2 (UTC 2006-11-01)\n\nAudio:\n\nFormat                           : AC-3\nFormat/Info                      : Audio Coding 3\nMode extension                   : CM (complete main)\nCodec ID                         : 2000\nDuration                         : 1h 20mn\nBit rate mode                    : Constant\nBit rate                         : 448 Kbps\nChannel(s)                       : 6 channels\nChannel positions                : Front: L C R, Side: L R, LFE\nSampling rate                    : 48.0 KHz\nBit depth                        : 16 bits\nStream size                      : 258 MiB (19%)\nAlignment                        : Aligned on interleaves\nInterleave, duration             : 32 ms (0.77 video frame)\nInterleave, preload duration     : 576 ms\n\n","torrent":{"xt":"urn:btih:b99826947d055eb162cfe31f69d24ea80bd07dcd","amp;dn":"Children+of+the+Corn%2C+Genesis+2011+DVDrip+English+Klam","amp;tr":["udp%3A%2F%2Ftracker.openbittorrent.com%3A80","udp%3A%2F%2Fopen.demonii.com%3A1337","udp%3A%2F%2Ftracker.coppersurfer.tk%3A6969","udp%3A%2F%2Fexodus.desync.com%3A6969"],"infoHash":"b99826947d055eb162cfe31f69d24ea80bd07dcd","infoHashBuffer":{"type":"Buffer","data":[185,152,38,148,125,5,94,177,98,207,227,31,105,210,78,168,11,208,125,205]},"announce":[],"urlList":[]}}